<svg width="48" height="48" viewBox="0 0 48 48" fill="#246FE1" xmlns="http://www.w3.org/2000/svg">
<rect x="0.5" y="0.5" width="47" height="47" rx="3.5" stroke="#BEBEBE"/>
<path fill-rule="evenodd" clip-rule="evenodd" d="M24 18C24.5848 18 25.0588 18.4741 25.0588 19.0588V22.9412H28.9412C29.5259 22.9412 30 23.4152 30 24C30 24.5848 29.5259 25.0588 28.9412 25.0588H25.0588V28.9412C25.0588 29.5259 24.5848 30 24 30C23.4152 30 22.9412 29.5259 22.9412 28.9412V25.0588H19.0588C18.4741 25.0588 18 24.5848 18 24C18 23.4152 18.4741 22.9412 19.0588 22.9412H22.9412V19.0588C22.9412 18.4741 23.4152 18 24 18Z" fill="#FFFFFF"/>
</svg>
