<svg width="160" height="115" viewBox="0 0 160 115" fill="none" xmlns="http://www.w3.org/2000/svg">
<path fill-rule="evenodd" clip-rule="evenodd" d="M47.4016 3.95082C48.4926 3.95082 49.377 3.0664 49.377 1.97541C49.377 0.884421 48.4926 0 47.4016 0C46.3107 0 45.4262 0.884421 45.4262 1.97541C45.4262 3.0664 46.3107 3.95082 47.4016 3.95082ZM-79.0246 3.95112C-77.9336 3.95112 -77.0492 3.06669 -77.0492 1.97571C-77.0492 0.884717 -77.9336 0.000296171 -79.0246 0.000296171C-80.1156 0.000296171 -81 0.884717 -81 1.97571C-81 3.06669 -80.1156 3.95112 -79.0246 3.95112ZM-13.8361 1.97541C-13.8361 3.0664 -14.7205 3.95082 -15.8115 3.95082C-16.9025 3.95082 -17.7869 3.0664 -17.7869 1.97541C-17.7869 0.884421 -16.9025 0 -15.8115 0C-14.7205 0 -13.8361 0.884421 -13.8361 1.97541ZM110.615 3.95082C111.706 3.95082 112.59 3.0664 112.59 1.97541C112.59 0.884421 111.706 0 110.615 0C109.524 0 108.639 0.884421 108.639 1.97541C108.639 3.0664 109.524 3.95082 110.615 3.95082ZM-45.4426 1.97541C-45.4426 3.0664 -46.327 3.95082 -47.418 3.95082C-48.509 3.95082 -49.3934 3.0664 -49.3934 1.97541C-49.3934 0.884421 -48.509 0 -47.418 0C-46.327 0 -45.4426 0.884421 -45.4426 1.97541ZM79.0082 3.95082C80.0992 3.95082 80.9836 3.0664 80.9836 1.97541C80.9836 0.884421 80.0992 0 79.0082 0C77.9172 0 77.0328 0.884421 77.0328 1.97541C77.0328 3.0664 77.9172 3.95082 79.0082 3.95082ZM17.7705 1.97541C17.7705 3.0664 16.8861 3.95082 15.7951 3.95082C14.7041 3.95082 13.8197 3.0664 13.8197 1.97541C13.8197 0.884421 14.7041 0 15.7951 0C16.8861 0 17.7705 0.884421 17.7705 1.97541ZM142.221 3.95082C143.312 3.95082 144.197 3.0664 144.197 1.97541C144.197 0.884421 143.312 0 142.221 0C141.13 0 140.246 0.884421 140.246 1.97541C140.246 3.0664 141.13 3.95082 142.221 3.95082ZM-61.2459 1.97541C-61.2459 3.0664 -62.1303 3.95082 -63.2213 3.95082C-64.3123 3.95082 -65.1967 3.0664 -65.1967 1.97541C-65.1967 0.884421 -64.3123 0 -63.2213 0C-62.1303 0 -61.2459 0.884421 -61.2459 1.97541ZM63.2049 3.95082C64.2959 3.95082 65.1803 3.0664 65.1803 1.97541C65.1803 0.884421 64.2959 0 63.2049 0C62.1139 0 61.2295 0.884421 61.2295 1.97541C61.2295 3.0664 62.1139 3.95082 63.2049 3.95082ZM1.96722 1.97541C1.96722 3.0664 1.08279 3.95082 -0.00819397 3.95082C-1.09918 3.95082 -1.9836 3.0664 -1.9836 1.97541C-1.9836 0.884421 -1.09918 0 -0.00819397 0C1.08279 0 1.96722 0.884421 1.96722 1.97541ZM126.418 3.95082C127.509 3.95082 128.393 3.0664 128.393 1.97541C128.393 0.884421 127.509 0 126.418 0C125.327 0 124.443 0.884421 124.443 1.97541C124.443 3.0664 125.327 3.95082 126.418 3.95082ZM-29.6393 1.97541C-29.6393 3.0664 -30.5238 3.95082 -31.6148 3.95082C-32.7057 3.95082 -33.5902 3.0664 -33.5902 1.97541C-33.5902 0.884421 -32.7057 0 -31.6148 0C-30.5238 0 -29.6393 0.884421 -29.6393 1.97541ZM94.8115 3.95082C95.9025 3.95082 96.7869 3.0664 96.7869 1.97541C96.7869 0.884421 95.9025 0 94.8115 0C93.7205 0 92.8361 0.884421 92.8361 1.97541C92.8361 3.0664 93.7205 3.95082 94.8115 3.95082ZM33.5738 1.97541C33.5738 3.0664 32.6893 3.95082 31.5984 3.95082C30.5074 3.95082 29.6229 3.0664 29.6229 1.97541C29.6229 0.884421 30.5074 0 31.5984 0C32.6893 0 33.5738 0.884421 33.5738 1.97541ZM158.025 3.95082C159.116 3.95082 160 3.0664 160 1.97541C160 0.884421 159.116 0 158.025 0C156.934 0 156.049 0.884421 156.049 1.97541C156.049 3.0664 156.934 3.95082 158.025 3.95082Z" fill="white" fill-opacity="0.07"/>
<path fill-rule="evenodd" clip-rule="evenodd" d="M-79.0246 67.1637C-77.9336 67.1637 -77.0492 66.2793 -77.0492 65.1883C-77.0492 64.0973 -77.9336 63.2129 -79.0246 63.2129C-80.1156 63.2129 -81 64.0973 -81 65.1883C-81 66.2793 -80.1156 67.1637 -79.0246 67.1637ZM47.4016 67.1638C48.4926 67.1638 49.377 66.2793 49.377 65.1884C49.377 64.0974 48.4926 63.2129 47.4016 63.2129C46.3107 63.2129 45.4262 64.0974 45.4262 65.1884C45.4262 66.2793 46.3107 67.1638 47.4016 67.1638ZM-13.8361 65.1884C-13.8361 66.2793 -14.7205 67.1638 -15.8115 67.1638C-16.9025 67.1638 -17.7869 66.2793 -17.7869 65.1884C-17.7869 64.0974 -16.9025 63.2129 -15.8115 63.2129C-14.7205 63.2129 -13.8361 64.0974 -13.8361 65.1884ZM110.615 67.1638C111.706 67.1638 112.59 66.2793 112.59 65.1884C112.59 64.0974 111.706 63.2129 110.615 63.2129C109.524 63.2129 108.639 64.0974 108.639 65.1884C108.639 66.2793 109.524 67.1638 110.615 67.1638ZM-45.4426 65.1884C-45.4426 66.2793 -46.327 67.1638 -47.418 67.1638C-48.509 67.1638 -49.3934 66.2793 -49.3934 65.1884C-49.3934 64.0974 -48.509 63.2129 -47.418 63.2129C-46.327 63.2129 -45.4426 64.0974 -45.4426 65.1884ZM79.0082 67.1638C80.0992 67.1638 80.9836 66.2793 80.9836 65.1884C80.9836 64.0974 80.0992 63.2129 79.0082 63.2129C77.9172 63.2129 77.0328 64.0974 77.0328 65.1884C77.0328 66.2793 77.9172 67.1638 79.0082 67.1638ZM17.7705 65.1884C17.7705 66.2793 16.8861 67.1638 15.7951 67.1638C14.7041 67.1638 13.8197 66.2793 13.8197 65.1884C13.8197 64.0974 14.7041 63.2129 15.7951 63.2129C16.8861 63.2129 17.7705 64.0974 17.7705 65.1884ZM142.221 67.1638C143.312 67.1638 144.197 66.2793 144.197 65.1884C144.197 64.0974 143.312 63.2129 142.221 63.2129C141.13 63.2129 140.246 64.0974 140.246 65.1884C140.246 66.2793 141.13 67.1638 142.221 67.1638ZM-61.2459 65.1884C-61.2459 66.2793 -62.1303 67.1638 -63.2213 67.1638C-64.3123 67.1638 -65.1967 66.2793 -65.1967 65.1884C-65.1967 64.0974 -64.3123 63.2129 -63.2213 63.2129C-62.1303 63.2129 -61.2459 64.0974 -61.2459 65.1884ZM63.2049 67.1638C64.2959 67.1638 65.1803 66.2793 65.1803 65.1884C65.1803 64.0974 64.2959 63.2129 63.2049 63.2129C62.1139 63.2129 61.2295 64.0974 61.2295 65.1884C61.2295 66.2793 62.1139 67.1638 63.2049 67.1638ZM1.96722 65.1884C1.96722 66.2793 1.08279 67.1638 -0.00819397 67.1638C-1.09918 67.1638 -1.9836 66.2793 -1.9836 65.1884C-1.9836 64.0974 -1.09918 63.2129 -0.00819397 63.2129C1.08279 63.2129 1.96722 64.0974 1.96722 65.1884ZM126.418 67.1638C127.509 67.1638 128.393 66.2793 128.393 65.1884C128.393 64.0974 127.509 63.2129 126.418 63.2129C125.327 63.2129 124.443 64.0974 124.443 65.1884C124.443 66.2793 125.327 67.1638 126.418 67.1638ZM-29.6393 65.1884C-29.6393 66.2793 -30.5238 67.1638 -31.6148 67.1638C-32.7057 67.1638 -33.5902 66.2793 -33.5902 65.1884C-33.5902 64.0974 -32.7057 63.2129 -31.6148 63.2129C-30.5238 63.2129 -29.6393 64.0974 -29.6393 65.1884ZM94.8115 67.1638C95.9025 67.1638 96.7869 66.2793 96.7869 65.1884C96.7869 64.0974 95.9025 63.2129 94.8115 63.2129C93.7205 63.2129 92.8361 64.0974 92.8361 65.1884C92.8361 66.2793 93.7205 67.1638 94.8115 67.1638ZM33.5738 65.1884C33.5738 66.2793 32.6893 67.1638 31.5984 67.1638C30.5074 67.1638 29.6229 66.2793 29.6229 65.1884C29.6229 64.0974 30.5074 63.2129 31.5984 63.2129C32.6893 63.2129 33.5738 64.0974 33.5738 65.1884ZM158.025 67.1638C159.116 67.1638 160 66.2793 160 65.1884C160 64.0974 159.116 63.2129 158.025 63.2129C156.934 63.2129 156.049 64.0974 156.049 65.1884C156.049 66.2793 156.934 67.1638 158.025 67.1638Z" fill="white" fill-opacity="0.07"/>
<path fill-rule="evenodd" clip-rule="evenodd" d="M47.4016 19.754C48.4926 19.754 49.377 18.8696 49.377 17.7786C49.377 16.6876 48.4926 15.8032 47.4016 15.8032C46.3107 15.8032 45.4262 16.6876 45.4262 17.7786C45.4262 18.8696 46.3107 19.754 47.4016 19.754ZM-79.0246 19.7542C-77.9336 19.7542 -77.0492 18.8698 -77.0492 17.7788C-77.0492 16.6878 -77.9336 15.8034 -79.0246 15.8034C-80.1156 15.8034 -81 16.6878 -81 17.7788C-81 18.8698 -80.1156 19.7542 -79.0246 19.7542ZM-13.8361 17.7786C-13.8361 18.8696 -14.7205 19.754 -15.8115 19.754C-16.9025 19.754 -17.7869 18.8696 -17.7869 17.7786C-17.7869 16.6876 -16.9025 15.8032 -15.8115 15.8032C-14.7205 15.8032 -13.8361 16.6876 -13.8361 17.7786ZM110.615 19.754C111.706 19.754 112.59 18.8696 112.59 17.7786C112.59 16.6876 111.706 15.8032 110.615 15.8032C109.524 15.8032 108.639 16.6876 108.639 17.7786C108.639 18.8696 109.524 19.754 110.615 19.754ZM-45.4426 17.7786C-45.4426 18.8696 -46.327 19.754 -47.418 19.754C-48.509 19.754 -49.3934 18.8696 -49.3934 17.7786C-49.3934 16.6876 -48.509 15.8032 -47.418 15.8032C-46.327 15.8032 -45.4426 16.6876 -45.4426 17.7786ZM79.0082 19.754C80.0992 19.754 80.9836 18.8696 80.9836 17.7786C80.9836 16.6876 80.0992 15.8032 79.0082 15.8032C77.9172 15.8032 77.0328 16.6876 77.0328 17.7786C77.0328 18.8696 77.9172 19.754 79.0082 19.754ZM17.7705 17.7786C17.7705 18.8696 16.8861 19.754 15.7951 19.754C14.7041 19.754 13.8197 18.8696 13.8197 17.7786C13.8197 16.6876 14.7041 15.8032 15.7951 15.8032C16.8861 15.8032 17.7705 16.6876 17.7705 17.7786ZM142.221 19.754C143.312 19.754 144.197 18.8696 144.197 17.7786C144.197 16.6876 143.312 15.8032 142.221 15.8032C141.13 15.8032 140.246 16.6876 140.246 17.7786C140.246 18.8696 141.13 19.754 142.221 19.754ZM-61.2459 17.7786C-61.2459 18.8696 -62.1303 19.754 -63.2213 19.754C-64.3123 19.754 -65.1967 18.8696 -65.1967 17.7786C-65.1967 16.6876 -64.3123 15.8032 -63.2213 15.8032C-62.1303 15.8032 -61.2459 16.6876 -61.2459 17.7786ZM63.2049 19.754C64.2959 19.754 65.1803 18.8696 65.1803 17.7786C65.1803 16.6876 64.2959 15.8032 63.2049 15.8032C62.1139 15.8032 61.2295 16.6876 61.2295 17.7786C61.2295 18.8696 62.1139 19.754 63.2049 19.754ZM1.96722 17.7786C1.96722 18.8696 1.08279 19.754 -0.00819397 19.754C-1.09918 19.754 -1.9836 18.8696 -1.9836 17.7786C-1.9836 16.6876 -1.09918 15.8032 -0.00819397 15.8032C1.08279 15.8032 1.96722 16.6876 1.96722 17.7786ZM126.418 19.754C127.509 19.754 128.393 18.8696 128.393 17.7786C128.393 16.6876 127.509 15.8032 126.418 15.8032C125.327 15.8032 124.443 16.6876 124.443 17.7786C124.443 18.8696 125.327 19.754 126.418 19.754ZM-29.6393 17.7786C-29.6393 18.8696 -30.5238 19.754 -31.6148 19.754C-32.7057 19.754 -33.5902 18.8696 -33.5902 17.7786C-33.5902 16.6876 -32.7057 15.8032 -31.6148 15.8032C-30.5238 15.8032 -29.6393 16.6876 -29.6393 17.7786ZM94.8115 19.754C95.9025 19.754 96.7869 18.8696 96.7869 17.7786C96.7869 16.6876 95.9025 15.8032 94.8115 15.8032C93.7205 15.8032 92.8361 16.6876 92.8361 17.7786C92.8361 18.8696 93.7205 19.754 94.8115 19.754ZM33.5738 17.7786C33.5738 18.8696 32.6893 19.754 31.5984 19.754C30.5074 19.754 29.6229 18.8696 29.6229 17.7786C29.6229 16.6876 30.5074 15.8032 31.5984 15.8032C32.6893 15.8032 33.5738 16.6876 33.5738 17.7786ZM158.025 19.754C159.116 19.754 160 18.8696 160 17.7786C160 16.6876 159.116 15.8032 158.025 15.8032C156.934 15.8032 156.049 16.6876 156.049 17.7786C156.049 18.8696 156.934 19.754 158.025 19.754Z" fill="white" fill-opacity="0.07"/>
<path fill-rule="evenodd" clip-rule="evenodd" d="M-79.0246 82.9674C-77.9336 82.9674 -77.0492 82.083 -77.0492 80.992C-77.0492 79.901 -77.9336 79.0166 -79.0246 79.0166C-80.1156 79.0166 -81 79.901 -81 80.992C-81 82.083 -80.1156 82.9674 -79.0246 82.9674ZM47.4016 82.9675C48.4926 82.9675 49.377 82.083 49.377 80.9921C49.377 79.9011 48.4926 79.0166 47.4016 79.0166C46.3107 79.0166 45.4262 79.9011 45.4262 80.9921C45.4262 82.083 46.3107 82.9675 47.4016 82.9675ZM-13.8361 80.9921C-13.8361 82.083 -14.7205 82.9675 -15.8115 82.9675C-16.9025 82.9675 -17.7869 82.083 -17.7869 80.9921C-17.7869 79.9011 -16.9025 79.0166 -15.8115 79.0166C-14.7205 79.0166 -13.8361 79.9011 -13.8361 80.9921ZM110.615 82.9675C111.706 82.9675 112.59 82.083 112.59 80.9921C112.59 79.9011 111.706 79.0166 110.615 79.0166C109.524 79.0166 108.639 79.9011 108.639 80.9921C108.639 82.083 109.524 82.9675 110.615 82.9675ZM-45.4426 80.9921C-45.4426 82.083 -46.327 82.9675 -47.418 82.9675C-48.509 82.9675 -49.3934 82.083 -49.3934 80.9921C-49.3934 79.9011 -48.509 79.0166 -47.418 79.0166C-46.327 79.0166 -45.4426 79.9011 -45.4426 80.9921ZM79.0082 82.9675C80.0992 82.9675 80.9836 82.083 80.9836 80.9921C80.9836 79.9011 80.0992 79.0166 79.0082 79.0166C77.9172 79.0166 77.0328 79.9011 77.0328 80.9921C77.0328 82.083 77.9172 82.9675 79.0082 82.9675ZM17.7705 80.9921C17.7705 82.083 16.8861 82.9675 15.7951 82.9675C14.7041 82.9675 13.8197 82.083 13.8197 80.9921C13.8197 79.9011 14.7041 79.0166 15.7951 79.0166C16.8861 79.0166 17.7705 79.9011 17.7705 80.9921ZM142.221 82.9675C143.312 82.9675 144.197 82.083 144.197 80.9921C144.197 79.9011 143.312 79.0166 142.221 79.0166C141.13 79.0166 140.246 79.9011 140.246 80.9921C140.246 82.083 141.13 82.9675 142.221 82.9675ZM-61.2459 80.9921C-61.2459 82.083 -62.1303 82.9675 -63.2213 82.9675C-64.3123 82.9675 -65.1967 82.083 -65.1967 80.9921C-65.1967 79.9011 -64.3123 79.0166 -63.2213 79.0166C-62.1303 79.0166 -61.2459 79.9011 -61.2459 80.9921ZM63.2049 82.9675C64.2959 82.9675 65.1803 82.083 65.1803 80.9921C65.1803 79.9011 64.2959 79.0166 63.2049 79.0166C62.1139 79.0166 61.2295 79.9011 61.2295 80.9921C61.2295 82.083 62.1139 82.9675 63.2049 82.9675ZM1.96722 80.9921C1.96722 82.083 1.08279 82.9675 -0.00819397 82.9675C-1.09918 82.9675 -1.9836 82.083 -1.9836 80.9921C-1.9836 79.9011 -1.09918 79.0166 -0.00819397 79.0166C1.08279 79.0166 1.96722 79.9011 1.96722 80.9921ZM126.418 82.9675C127.509 82.9675 128.393 82.083 128.393 80.9921C128.393 79.9011 127.509 79.0166 126.418 79.0166C125.327 79.0166 124.443 79.9011 124.443 80.9921C124.443 82.083 125.327 82.9675 126.418 82.9675ZM-29.6393 80.9921C-29.6393 82.083 -30.5238 82.9675 -31.6148 82.9675C-32.7057 82.9675 -33.5902 82.083 -33.5902 80.9921C-33.5902 79.9011 -32.7057 79.0166 -31.6148 79.0166C-30.5238 79.0166 -29.6393 79.9011 -29.6393 80.9921ZM94.8115 82.9675C95.9025 82.9675 96.7869 82.083 96.7869 80.9921C96.7869 79.9011 95.9025 79.0166 94.8115 79.0166C93.7205 79.0166 92.8361 79.9011 92.8361 80.9921C92.8361 82.083 93.7205 82.9675 94.8115 82.9675ZM33.5738 80.9921C33.5738 82.083 32.6893 82.9675 31.5984 82.9675C30.5074 82.9675 29.6229 82.083 29.6229 80.9921C29.6229 79.9011 30.5074 79.0166 31.5984 79.0166C32.6893 79.0166 33.5738 79.9011 33.5738 80.9921ZM158.025 82.9675C159.116 82.9675 160 82.083 160 80.9921C160 79.9011 159.116 79.0166 158.025 79.0166C156.934 79.0166 156.049 79.9011 156.049 80.9921C156.049 82.083 156.934 82.9675 158.025 82.9675Z" fill="white" fill-opacity="0.07"/>
<path fill-rule="evenodd" clip-rule="evenodd" d="M47.4016 35.5573C48.4926 35.5573 49.377 34.6728 49.377 33.5819C49.377 32.4909 48.4926 31.6064 47.4016 31.6064C46.3107 31.6064 45.4262 32.4909 45.4262 33.5819C45.4262 34.6728 46.3107 35.5573 47.4016 35.5573ZM-79.0246 35.5575C-77.9336 35.5575 -77.0492 34.6731 -77.0492 33.5821C-77.0492 32.4911 -77.9336 31.6067 -79.0246 31.6067C-80.1156 31.6067 -81 32.4911 -81 33.5821C-81 34.6731 -80.1156 35.5575 -79.0246 35.5575ZM-13.8361 33.5819C-13.8361 34.6728 -14.7205 35.5573 -15.8115 35.5573C-16.9025 35.5573 -17.7869 34.6728 -17.7869 33.5819C-17.7869 32.4909 -16.9025 31.6064 -15.8115 31.6064C-14.7205 31.6064 -13.8361 32.4909 -13.8361 33.5819ZM110.615 35.5573C111.706 35.5573 112.59 34.6728 112.59 33.5819C112.59 32.4909 111.706 31.6064 110.615 31.6064C109.524 31.6064 108.639 32.4909 108.639 33.5819C108.639 34.6728 109.524 35.5573 110.615 35.5573ZM-45.4426 33.5819C-45.4426 34.6728 -46.327 35.5573 -47.418 35.5573C-48.509 35.5573 -49.3934 34.6728 -49.3934 33.5819C-49.3934 32.4909 -48.509 31.6064 -47.418 31.6064C-46.327 31.6064 -45.4426 32.4909 -45.4426 33.5819ZM79.0082 35.5573C80.0992 35.5573 80.9836 34.6728 80.9836 33.5819C80.9836 32.4909 80.0992 31.6064 79.0082 31.6064C77.9172 31.6064 77.0328 32.4909 77.0328 33.5819C77.0328 34.6728 77.9172 35.5573 79.0082 35.5573ZM17.7705 33.5819C17.7705 34.6728 16.8861 35.5573 15.7951 35.5573C14.7041 35.5573 13.8197 34.6728 13.8197 33.5819C13.8197 32.4909 14.7041 31.6064 15.7951 31.6064C16.8861 31.6064 17.7705 32.4909 17.7705 33.5819ZM142.221 35.5573C143.312 35.5573 144.197 34.6728 144.197 33.5819C144.197 32.4909 143.312 31.6064 142.221 31.6064C141.13 31.6064 140.246 32.4909 140.246 33.5819C140.246 34.6728 141.13 35.5573 142.221 35.5573ZM-61.2459 33.5819C-61.2459 34.6728 -62.1303 35.5573 -63.2213 35.5573C-64.3123 35.5573 -65.1967 34.6728 -65.1967 33.5819C-65.1967 32.4909 -64.3123 31.6064 -63.2213 31.6064C-62.1303 31.6064 -61.2459 32.4909 -61.2459 33.5819ZM63.2049 35.5573C64.2959 35.5573 65.1803 34.6728 65.1803 33.5819C65.1803 32.4909 64.2959 31.6064 63.2049 31.6064C62.1139 31.6064 61.2295 32.4909 61.2295 33.5819C61.2295 34.6728 62.1139 35.5573 63.2049 35.5573ZM1.96722 33.5819C1.96722 34.6728 1.08279 35.5573 -0.00819397 35.5573C-1.09918 35.5573 -1.9836 34.6728 -1.9836 33.5819C-1.9836 32.4909 -1.09918 31.6064 -0.00819397 31.6064C1.08279 31.6064 1.96722 32.4909 1.96722 33.5819ZM126.418 35.5573C127.509 35.5573 128.393 34.6728 128.393 33.5819C128.393 32.4909 127.509 31.6064 126.418 31.6064C125.327 31.6064 124.443 32.4909 124.443 33.5819C124.443 34.6728 125.327 35.5573 126.418 35.5573ZM-29.6393 33.5819C-29.6393 34.6728 -30.5238 35.5573 -31.6148 35.5573C-32.7057 35.5573 -33.5902 34.6728 -33.5902 33.5819C-33.5902 32.4909 -32.7057 31.6064 -31.6148 31.6064C-30.5238 31.6064 -29.6393 32.4909 -29.6393 33.5819ZM94.8115 35.5573C95.9025 35.5573 96.7869 34.6728 96.7869 33.5819C96.7869 32.4909 95.9025 31.6064 94.8115 31.6064C93.7205 31.6064 92.8361 32.4909 92.8361 33.5819C92.8361 34.6728 93.7205 35.5573 94.8115 35.5573ZM33.5738 33.5819C33.5738 34.6728 32.6893 35.5573 31.5984 35.5573C30.5074 35.5573 29.6229 34.6728 29.6229 33.5819C29.6229 32.4909 30.5074 31.6064 31.5984 31.6064C32.6893 31.6064 33.5738 32.4909 33.5738 33.5819ZM158.025 35.5573C159.116 35.5573 160 34.6728 160 33.5819C160 32.4909 159.116 31.6064 158.025 31.6064C156.934 31.6064 156.049 32.4909 156.049 33.5819C156.049 34.6728 156.934 35.5573 158.025 35.5573Z" fill="white" fill-opacity="0.07"/>
<path fill-rule="evenodd" clip-rule="evenodd" d="M47.4016 98.7706C48.4926 98.7706 49.377 97.8862 49.377 96.7952C49.377 95.7042 48.4926 94.8198 47.4016 94.8198C46.3107 94.8198 45.4262 95.7042 45.4262 96.7952C45.4262 97.8862 46.3107 98.7706 47.4016 98.7706ZM-79.0246 98.771C-77.9336 98.771 -77.0492 97.8865 -77.0492 96.7956C-77.0492 95.7046 -77.9336 94.8201 -79.0246 94.8201C-80.1156 94.8201 -81 95.7046 -81 96.7956C-81 97.8865 -80.1156 98.771 -79.0246 98.771ZM-13.8361 96.7952C-13.8361 97.8862 -14.7205 98.7706 -15.8115 98.7706C-16.9025 98.7706 -17.7869 97.8862 -17.7869 96.7952C-17.7869 95.7042 -16.9025 94.8198 -15.8115 94.8198C-14.7205 94.8198 -13.8361 95.7042 -13.8361 96.7952ZM110.615 98.7706C111.706 98.7706 112.59 97.8862 112.59 96.7952C112.59 95.7042 111.706 94.8198 110.615 94.8198C109.524 94.8198 108.639 95.7042 108.639 96.7952C108.639 97.8862 109.524 98.7706 110.615 98.7706ZM-45.4426 96.7952C-45.4426 97.8862 -46.327 98.7706 -47.418 98.7706C-48.509 98.7706 -49.3934 97.8862 -49.3934 96.7952C-49.3934 95.7042 -48.509 94.8198 -47.418 94.8198C-46.327 94.8198 -45.4426 95.7042 -45.4426 96.7952ZM79.0082 98.7706C80.0992 98.7706 80.9836 97.8862 80.9836 96.7952C80.9836 95.7042 80.0992 94.8198 79.0082 94.8198C77.9172 94.8198 77.0328 95.7042 77.0328 96.7952C77.0328 97.8862 77.9172 98.7706 79.0082 98.7706ZM17.7705 96.7952C17.7705 97.8862 16.8861 98.7706 15.7951 98.7706C14.7041 98.7706 13.8197 97.8862 13.8197 96.7952C13.8197 95.7042 14.7041 94.8198 15.7951 94.8198C16.8861 94.8198 17.7705 95.7042 17.7705 96.7952ZM142.221 98.7706C143.312 98.7706 144.197 97.8862 144.197 96.7952C144.197 95.7042 143.312 94.8198 142.221 94.8198C141.13 94.8198 140.246 95.7042 140.246 96.7952C140.246 97.8862 141.13 98.7706 142.221 98.7706ZM-61.2459 96.7952C-61.2459 97.8862 -62.1303 98.7706 -63.2213 98.7706C-64.3123 98.7706 -65.1967 97.8862 -65.1967 96.7952C-65.1967 95.7042 -64.3123 94.8198 -63.2213 94.8198C-62.1303 94.8198 -61.2459 95.7042 -61.2459 96.7952ZM63.2049 98.7706C64.2959 98.7706 65.1803 97.8862 65.1803 96.7952C65.1803 95.7042 64.2959 94.8198 63.2049 94.8198C62.1139 94.8198 61.2295 95.7042 61.2295 96.7952C61.2295 97.8862 62.1139 98.7706 63.2049 98.7706ZM1.96722 96.7952C1.96722 97.8862 1.08279 98.7706 -0.00819397 98.7706C-1.09918 98.7706 -1.9836 97.8862 -1.9836 96.7952C-1.9836 95.7042 -1.09918 94.8198 -0.00819397 94.8198C1.08279 94.8198 1.96722 95.7042 1.96722 96.7952ZM126.418 98.7706C127.509 98.7706 128.393 97.8862 128.393 96.7952C128.393 95.7042 127.509 94.8198 126.418 94.8198C125.327 94.8198 124.443 95.7042 124.443 96.7952C124.443 97.8862 125.327 98.7706 126.418 98.7706ZM-29.6393 96.7952C-29.6393 97.8862 -30.5238 98.7706 -31.6148 98.7706C-32.7057 98.7706 -33.5902 97.8862 -33.5902 96.7952C-33.5902 95.7042 -32.7057 94.8198 -31.6148 94.8198C-30.5238 94.8198 -29.6393 95.7042 -29.6393 96.7952ZM94.8115 98.7706C95.9025 98.7706 96.7869 97.8862 96.7869 96.7952C96.7869 95.7042 95.9025 94.8198 94.8115 94.8198C93.7205 94.8198 92.8361 95.7042 92.8361 96.7952C92.8361 97.8862 93.7205 98.7706 94.8115 98.7706ZM33.5738 96.7952C33.5738 97.8862 32.6893 98.7706 31.5984 98.7706C30.5074 98.7706 29.6229 97.8862 29.6229 96.7952C29.6229 95.7042 30.5074 94.8198 31.5984 94.8198C32.6893 94.8198 33.5738 95.7042 33.5738 96.7952ZM158.025 98.7706C159.116 98.7706 160 97.8862 160 96.7952C160 95.7042 159.116 94.8198 158.025 94.8198C156.934 94.8198 156.049 95.7042 156.049 96.7952C156.049 97.8862 156.934 98.7706 158.025 98.7706Z" fill="white" fill-opacity="0.07"/>
<path fill-rule="evenodd" clip-rule="evenodd" d="M47.4016 51.3605C48.4926 51.3605 49.377 50.4761 49.377 49.3851C49.377 48.2941 48.4926 47.4097 47.4016 47.4097C46.3107 47.4097 45.4262 48.2941 45.4262 49.3851C45.4262 50.4761 46.3107 51.3605 47.4016 51.3605ZM-79.0246 51.3606C-77.9336 51.3606 -77.0492 50.4762 -77.0492 49.3852C-77.0492 48.2942 -77.9336 47.4098 -79.0246 47.4098C-80.1156 47.4098 -81 48.2942 -81 49.3852C-81 50.4762 -80.1156 51.3606 -79.0246 51.3606ZM-13.8361 49.3851C-13.8361 50.4761 -14.7205 51.3605 -15.8115 51.3605C-16.9025 51.3605 -17.7869 50.4761 -17.7869 49.3851C-17.7869 48.2941 -16.9025 47.4097 -15.8115 47.4097C-14.7205 47.4097 -13.8361 48.2941 -13.8361 49.3851ZM110.615 51.3605C111.706 51.3605 112.59 50.4761 112.59 49.3851C112.59 48.2941 111.706 47.4097 110.615 47.4097C109.524 47.4097 108.639 48.2941 108.639 49.3851C108.639 50.4761 109.524 51.3605 110.615 51.3605ZM-45.4426 49.3851C-45.4426 50.4761 -46.327 51.3605 -47.418 51.3605C-48.509 51.3605 -49.3934 50.4761 -49.3934 49.3851C-49.3934 48.2941 -48.509 47.4097 -47.418 47.4097C-46.327 47.4097 -45.4426 48.2941 -45.4426 49.3851ZM79.0082 51.3605C80.0992 51.3605 80.9836 50.4761 80.9836 49.3851C80.9836 48.2941 80.0992 47.4097 79.0082 47.4097C77.9172 47.4097 77.0328 48.2941 77.0328 49.3851C77.0328 50.4761 77.9172 51.3605 79.0082 51.3605ZM17.7705 49.3851C17.7705 50.4761 16.8861 51.3605 15.7951 51.3605C14.7041 51.3605 13.8197 50.4761 13.8197 49.3851C13.8197 48.2941 14.7041 47.4097 15.7951 47.4097C16.8861 47.4097 17.7705 48.2941 17.7705 49.3851ZM142.221 51.3605C143.312 51.3605 144.197 50.4761 144.197 49.3851C144.197 48.2941 143.312 47.4097 142.221 47.4097C141.13 47.4097 140.246 48.2941 140.246 49.3851C140.246 50.4761 141.13 51.3605 142.221 51.3605ZM-61.2459 49.3851C-61.2459 50.4761 -62.1303 51.3605 -63.2213 51.3605C-64.3123 51.3605 -65.1967 50.4761 -65.1967 49.3851C-65.1967 48.2941 -64.3123 47.4097 -63.2213 47.4097C-62.1303 47.4097 -61.2459 48.2941 -61.2459 49.3851ZM63.2049 51.3605C64.2959 51.3605 65.1803 50.4761 65.1803 49.3851C65.1803 48.2941 64.2959 47.4097 63.2049 47.4097C62.1139 47.4097 61.2295 48.2941 61.2295 49.3851C61.2295 50.4761 62.1139 51.3605 63.2049 51.3605ZM1.96722 49.3851C1.96722 50.4761 1.08279 51.3605 -0.00819397 51.3605C-1.09918 51.3605 -1.9836 50.4761 -1.9836 49.3851C-1.9836 48.2941 -1.09918 47.4097 -0.00819397 47.4097C1.08279 47.4097 1.96722 48.2941 1.96722 49.3851ZM126.418 51.3605C127.509 51.3605 128.393 50.4761 128.393 49.3851C128.393 48.2941 127.509 47.4097 126.418 47.4097C125.327 47.4097 124.443 48.2941 124.443 49.3851C124.443 50.4761 125.327 51.3605 126.418 51.3605ZM-29.6393 49.3851C-29.6393 50.4761 -30.5238 51.3605 -31.6148 51.3605C-32.7057 51.3605 -33.5902 50.4761 -33.5902 49.3851C-33.5902 48.2941 -32.7057 47.4097 -31.6148 47.4097C-30.5238 47.4097 -29.6393 48.2941 -29.6393 49.3851ZM94.8115 51.3605C95.9025 51.3605 96.7869 50.4761 96.7869 49.3851C96.7869 48.2941 95.9025 47.4097 94.8115 47.4097C93.7205 47.4097 92.8361 48.2941 92.8361 49.3851C92.8361 50.4761 93.7205 51.3605 94.8115 51.3605ZM33.5738 49.3851C33.5738 50.4761 32.6893 51.3605 31.5984 51.3605C30.5074 51.3605 29.6229 50.4761 29.6229 49.3851C29.6229 48.2941 30.5074 47.4097 31.5984 47.4097C32.6893 47.4097 33.5738 48.2941 33.5738 49.3851ZM158.025 51.3605C159.116 51.3605 160 50.4761 160 49.3851C160 48.2941 159.116 47.4097 158.025 47.4097C156.934 47.4097 156.049 48.2941 156.049 49.3851C156.049 50.4761 156.934 51.3605 158.025 51.3605Z" fill="white" fill-opacity="0.07"/>
<path fill-rule="evenodd" clip-rule="evenodd" d="M47.4016 114.574C48.4926 114.574 49.377 113.689 49.377 112.598C49.377 111.507 48.4926 110.623 47.4016 110.623C46.3107 110.623 45.4262 111.507 45.4262 112.598C45.4262 113.689 46.3107 114.574 47.4016 114.574ZM-79.0246 114.574C-77.9336 114.574 -77.0492 113.69 -77.0492 112.599C-77.0492 111.508 -77.9336 110.624 -79.0246 110.624C-80.1156 110.624 -81 111.508 -81 112.599C-81 113.69 -80.1156 114.574 -79.0246 114.574ZM-13.8361 112.598C-13.8361 113.689 -14.7205 114.574 -15.8115 114.574C-16.9025 114.574 -17.7869 113.689 -17.7869 112.598C-17.7869 111.507 -16.9025 110.623 -15.8115 110.623C-14.7205 110.623 -13.8361 111.507 -13.8361 112.598ZM110.615 114.574C111.706 114.574 112.59 113.689 112.59 112.598C112.59 111.507 111.706 110.623 110.615 110.623C109.524 110.623 108.639 111.507 108.639 112.598C108.639 113.689 109.524 114.574 110.615 114.574ZM-45.4426 112.598C-45.4426 113.689 -46.327 114.574 -47.418 114.574C-48.509 114.574 -49.3934 113.689 -49.3934 112.598C-49.3934 111.507 -48.509 110.623 -47.418 110.623C-46.327 110.623 -45.4426 111.507 -45.4426 112.598ZM79.0082 114.574C80.0992 114.574 80.9836 113.689 80.9836 112.598C80.9836 111.507 80.0992 110.623 79.0082 110.623C77.9172 110.623 77.0328 111.507 77.0328 112.598C77.0328 113.689 77.9172 114.574 79.0082 114.574ZM17.7705 112.598C17.7705 113.689 16.8861 114.574 15.7951 114.574C14.7041 114.574 13.8197 113.689 13.8197 112.598C13.8197 111.507 14.7041 110.623 15.7951 110.623C16.8861 110.623 17.7705 111.507 17.7705 112.598ZM142.221 114.574C143.312 114.574 144.197 113.689 144.197 112.598C144.197 111.507 143.312 110.623 142.221 110.623C141.13 110.623 140.246 111.507 140.246 112.598C140.246 113.689 141.13 114.574 142.221 114.574ZM-61.2459 112.598C-61.2459 113.689 -62.1303 114.574 -63.2213 114.574C-64.3123 114.574 -65.1967 113.689 -65.1967 112.598C-65.1967 111.507 -64.3123 110.623 -63.2213 110.623C-62.1303 110.623 -61.2459 111.507 -61.2459 112.598ZM63.2049 114.574C64.2959 114.574 65.1803 113.689 65.1803 112.598C65.1803 111.507 64.2959 110.623 63.2049 110.623C62.1139 110.623 61.2295 111.507 61.2295 112.598C61.2295 113.689 62.1139 114.574 63.2049 114.574ZM1.96722 112.598C1.96722 113.689 1.08279 114.574 -0.00819397 114.574C-1.09918 114.574 -1.9836 113.689 -1.9836 112.598C-1.9836 111.507 -1.09918 110.623 -0.00819397 110.623C1.08279 110.623 1.96722 111.507 1.96722 112.598ZM126.418 114.574C127.509 114.574 128.393 113.689 128.393 112.598C128.393 111.507 127.509 110.623 126.418 110.623C125.327 110.623 124.443 111.507 124.443 112.598C124.443 113.689 125.327 114.574 126.418 114.574ZM-29.6393 112.598C-29.6393 113.689 -30.5238 114.574 -31.6148 114.574C-32.7057 114.574 -33.5902 113.689 -33.5902 112.598C-33.5902 111.507 -32.7057 110.623 -31.6148 110.623C-30.5238 110.623 -29.6393 111.507 -29.6393 112.598ZM94.8115 114.574C95.9025 114.574 96.7869 113.689 96.7869 112.598C96.7869 111.507 95.9025 110.623 94.8115 110.623C93.7205 110.623 92.8361 111.507 92.8361 112.598C92.8361 113.689 93.7205 114.574 94.8115 114.574ZM33.5738 112.598C33.5738 113.689 32.6893 114.574 31.5984 114.574C30.5074 114.574 29.6229 113.689 29.6229 112.598C29.6229 111.507 30.5074 110.623 31.5984 110.623C32.6893 110.623 33.5738 111.507 33.5738 112.598ZM158.025 114.574C159.116 114.574 160 113.689 160 112.598C160 111.507 159.116 110.623 158.025 110.623C156.934 110.623 156.049 111.507 156.049 112.598C156.049 113.689 156.934 114.574 158.025 114.574Z" fill="white" fill-opacity="0.07"/>
</svg>
