<svg width="33" height="33" viewBox="0 0 33 33" fill="none" xmlns="http://www.w3.org/2000/svg">
<g clip-path="url(#clip0)">
<path d="M29.4098 22.6187V26.6291C29.4113 27.0014 29.335 27.37 29.1859 27.7111C29.0367 28.0522 28.818 28.3584 28.5436 28.6101C28.2693 28.8618 27.9454 29.0534 27.5927 29.1727C27.24 29.292 26.8663 29.3363 26.4955 29.3028C22.382 28.8558 18.4306 27.4501 14.9589 25.1988C11.729 23.1463 8.99053 20.4079 6.93809 17.1779C4.67885 13.6905 3.27289 9.71989 2.83409 5.58783C2.80069 5.21816 2.84462 4.84558 2.96309 4.49382C3.08157 4.14206 3.27199 3.81882 3.52223 3.54468C3.77248 3.27055 4.07706 3.05152 4.41659 2.90155C4.75612 2.75157 5.12316 2.67394 5.49434 2.67359H9.50475C10.1535 2.66721 10.7825 2.89694 11.2744 3.31998C11.7663 3.74302 12.0876 4.33049 12.1784 4.9729C12.3476 6.25632 12.6616 7.51647 13.1141 8.72932C13.294 9.20779 13.3329 9.7278 13.2263 10.2277C13.1197 10.7276 12.872 11.1865 12.5126 11.55L10.8148 13.2477C12.7178 16.5945 15.4889 19.3655 18.8357 21.2686L20.5334 19.5708C20.8969 19.2114 21.3557 18.9637 21.8557 18.8571C22.3556 18.7505 22.8756 18.7894 23.3541 18.9692C24.5669 19.4218 25.8271 19.7357 27.1105 19.905C27.7599 19.9966 28.3529 20.3237 28.7768 20.8241C29.2008 21.3244 29.4261 21.9631 29.4098 22.6187Z" fill="#246FE1"/>
<path d="M20.1187 6.68408C21.4244 6.93882 22.6243 7.57741 23.565 8.51809C24.5057 9.45877 25.1443 10.6588 25.399 11.9645M20.1187 1.33685C22.8314 1.63822 25.3611 2.85302 27.2923 4.78181C29.2235 6.7106 30.4415 9.23872 30.7463 11.9511" stroke="#EA305C" stroke-width="3" stroke-linecap="round" stroke-linejoin="round"/>
</g>
<defs>
<clipPath id="clip0">
<rect width="32.0833" height="32.0833" fill="white"/>
</clipPath>
</defs>
</svg>
