<svg width="53" height="43" viewBox="0 0 53 43" fill="none" xmlns="http://www.w3.org/2000/svg">
<path d="M8.98773 8.22784L6.44434 4.84808" stroke="#F98F22" stroke-width="1.5" stroke-linecap="round"/>
<path d="M12.037 6.38271L12 5" stroke="#F98F22" stroke-width="1.5" stroke-linecap="round"/>
<path d="M6.65787 10.9262L5 11.0001" stroke="#F98F22" stroke-width="1.5" stroke-linecap="round"/>
<path d="M50.9444 8L51.4696 9.41927L52.8889 9.94444L51.4696 10.4696L50.9444 13L50.4193 10.4696L49 9.94444L50.4193 9.41927L50.9444 8Z" fill="#D9D9D9"/>
<path d="M33.5 0L34.1752 1.70312L36 2.33333L34.1752 2.96355L33.5 6L32.8248 2.96355L31 2.33333L32.8248 1.70312L33.5 0Z" fill="#FFBE5E"/>
<path d="M2.5 28L3.17523 29.7031L5 30.3333L3.17523 30.9635L2.5 34L1.82477 30.9635L0 30.3333L1.82477 29.7031L2.5 28Z" fill="#D9D9D9"/>
</svg>
