<svg width="195" height="54" viewBox="0 0 195 54" fill="none" xmlns="http://www.w3.org/2000/svg">
  <defs>
    <clipPath id="clip-path">
      <rect y="2" width="21" height="14" fill="none"/>
    </clipPath>
    <clipPath id="clip-path-2">
      <rect y="5" width="21" height="14" fill="none"/>
    </clipPath>
  </defs>
  <g id="logo-big">
    <path id="Path_74" data-name="Path 74" d="M20.91,33.508h3.813c3.153,3.817,6.306,7.634,9.826,11.745V33.582h4.62V53.109h-3.96c-3.006-3.6-6.159-7.341-9.606-11.525v11.6H20.91Z" fill="#fff"/>
    <path id="Path_75" data-name="Path 75" d="M108.242,33.507c3.959.073,7.992-.44,11.952.44a6.543,6.543,0,0,1,5.353,5.506c.44,2.863-.294,5.359-2.933,7.047-.294.22-.514.44-.88.734,1.393,1.982,2.713,3.891,4.179,6.02h-5.059c-1.173-1.615-2.42-3.377-3.74-5.212h-4.179v5.212h-4.62C108.242,46.721,108.242,40.261,108.242,33.507Zm4.693,10.571h2.786a16.512,16.512,0,0,0,1.906,0A3.224,3.224,0,0,0,120.78,40.7a2.962,2.962,0,0,0-3.006-3.157c-1.613-.147-3.153,0-4.766,0C112.935,39.747,112.935,41.8,112.935,44.078Z" fill="#fff"/>
    <path id="Path_76" data-name="Path 76" d="M71.065,33.141c5.353,0,9.532,2.936,10.706,7.488,1.687,6.313-2.126,11.966-8.872,12.92-4.106.587-7.846-.514-10.559-3.817a9.929,9.929,0,0,1-1.467-10.2C62.339,35.563,66.3,33.214,71.065,33.141ZM77.3,43.491a6.234,6.234,0,1,0-12.465-.147,6.28,6.28,0,0,0,6.086,6.387A6.088,6.088,0,0,0,77.3,43.491Z" fill="#fff"/>
    <path id="Path_77" data-name="Path 77" d="M164.483,48.63V43.124h4.106v8.148a13.822,13.822,0,0,1-11.952,1.762c-4.766-1.468-7.406-5.726-6.893-10.938a9.785,9.785,0,0,1,8.873-8.809c3.886-.44,7.479.147,10.266,3.083-.88.954-1.687,1.835-2.713,2.863-.66-.441-1.32-.881-1.98-1.248a6.863,6.863,0,0,0-7.7.661,6.435,6.435,0,0,0-1.759,7.121C156.124,49.584,160.963,50.685,164.483,48.63Z" fill="#fff"/>
    <path id="Path_78" data-name="Path 78" d="M98.929,33.655h4.62c0,4.331.22,8.515-.074,12.773-.293,4.184-3.006,6.68-7.259,7.267-4.619.587-9.019-.807-10.486-5.652a5.143,5.143,0,0,1-.22-1.028c-.073-.881-.147-1.762-.147-2.716V33.655h4.473a19.347,19.347,0,0,1,.147,2.055v8.075a10.947,10.947,0,0,0,.44,3.157c.587,1.909,1.98,2.79,4.18,2.716,2.126-.074,3.593-1.1,3.96-3.01a18.576,18.576,0,0,0,.22-3.524C98.929,40.041,98.929,36.885,98.929,33.655Z" fill="#fff"/>
    <path id="Path_79" data-name="Path 79" d="M135.446,33.581h4.693c2.933,6.46,5.866,12.92,8.872,19.6h-4.986c-1.98-4.7-4.033-9.543-6.306-14.9-2.2,5.285-4.326,10.057-6.379,14.975H126.5C129.58,46.574,132.513,40.041,135.446,33.581Z" fill="#fff"/>
    <path id="Path_80" data-name="Path 80" d="M41.881,33.581H59.04V37.4H52.88V53.181H48.187V37.545H41.808C41.881,36.15,41.881,35.049,41.881,33.581Z" fill="#fff"/>
    <path id="Path_81" data-name="Path 81" d="M172.989,53.182v-11.6h13.859v3.45h-9.02v4.478h10.559c.074.881.147,1.468.22,2.055,0,.514-.073,1.028-.073,1.688C183.328,53.182,178.268,53.182,172.989,53.182Z" fill="#fff"/>
    <path id="Path_82" data-name="Path 82" d="M15.337,41.656v3.45H6.465v4.4H16.95v3.67H1.7V41.656Z" fill="#fff"/>
    <path id="Path_83" data-name="Path 83" d="M173.136,33.655h14.811v3.967H173.136Z" fill="#fc414c"/>
    <path id="Path_84" data-name="Path 84" d="M193.08,50.1a1.835,1.835,0,0,1,1.907,1.835,1.772,1.772,0,0,1-1.687,1.762,1.622,1.622,0,0,1-1.833-1.542A1.712,1.712,0,0,1,193.08,50.1Z" fill="#fc414c"/>
    <path id="Path_85" data-name="Path 85" d="M1.772,37.695V33.728H16.73v3.967Z" fill="#fc414c"/>
    <rect id="Rectangle_27" data-name="Rectangle 27" width="40.646" height="21.024" rx="3" transform="translate(0 4.766)" fill="#ea305c"/>
    <g id="Scroll_Group_1" data-name="Scroll Group 1" transform="translate(10 6.766)" clip-path="url(#clip-path)" style="isolation: isolate">
      <g id="Scroll_Group_2" data-name="Scroll Group 2" transform="translate(0 -3)" clip-path="url(#clip-path-2)" style="isolation: isolate">
        <text id="_2.0" data-name="2.0" transform="translate(0 17)" fill="#fff" font-size="16" font-family="SegoeUI, Segoe UI"><tspan x="0" y="0">2.0</tspan></text>
      </g>
    </g>
  </g>
</svg>
