<svg width="195" height="54" viewBox="0 0 195 54" fill="none" xmlns="http://www.w3.org/2000/svg">
<path d="M20.91 33.5083C22.3032 33.5083 23.4765 33.5083 24.723 33.5083C27.876 37.3256 31.0291 41.1428 34.5487 45.2537C34.5487 41.0694 34.5487 37.399 34.5487 33.5817C36.0886 33.5817 37.5551 33.5817 39.1683 33.5817C39.1683 40.1151 39.1683 46.5017 39.1683 53.1085C37.9217 53.1085 36.6752 53.1085 35.2087 53.1085C32.2023 49.5115 29.0493 45.7676 25.6029 41.5833C25.6029 45.7676 25.6029 49.3646 25.6029 53.1819C23.9164 53.1819 22.5232 53.1819 20.91 53.1819C20.91 46.7219 20.91 40.2619 20.91 33.5083Z" fill="white"/>
<path d="M108.242 33.507C112.201 33.5804 116.234 33.0666 120.194 33.9475C123.054 34.6082 125.033 36.4434 125.547 39.4531C125.987 42.3161 125.253 44.812 122.614 46.5004C122.32 46.7206 122.1 46.9409 121.734 47.2345C123.127 49.2165 124.447 51.1252 125.913 53.254C124.08 53.254 122.614 53.254 120.854 53.254C119.681 51.639 118.434 49.8772 117.114 48.042C115.868 48.042 114.474 48.042 112.935 48.042C112.935 49.8038 112.935 51.4922 112.935 53.254C111.248 53.254 109.855 53.254 108.315 53.254C108.242 46.7206 108.242 40.2606 108.242 33.507ZM112.935 44.0779C113.888 44.0779 114.841 44.0779 115.721 44.0779C116.381 44.0779 116.967 44.1513 117.627 44.0779C119.607 43.8577 120.78 42.6097 120.78 40.7011C120.78 38.9393 119.754 37.6913 117.774 37.5445C116.161 37.3977 114.621 37.5445 113.008 37.5445C112.935 39.7468 112.935 41.8022 112.935 44.0779Z" fill="white"/>
<path d="M71.0653 33.1406C76.4181 33.1406 80.5977 36.077 81.7709 40.6283C83.4574 46.9415 79.6445 52.594 72.8984 53.5483C68.7922 54.1356 65.0525 53.0345 62.3394 49.7311C59.8463 46.6479 59.553 43.1242 60.8729 39.5272C62.3394 35.5631 66.2991 33.214 71.0653 33.1406ZM77.298 43.4913C77.298 39.8208 74.585 37.1047 70.992 37.1047C67.5456 37.1781 64.8325 39.8943 64.8325 43.3445C64.7592 46.7947 67.4723 49.5842 70.9186 49.7311C74.5116 49.8779 77.298 47.0883 77.298 43.4913Z" fill="white"/>
<path d="M164.483 48.6299C164.483 46.8681 164.483 45.0329 164.483 43.1242C165.876 43.1242 167.123 43.1242 168.589 43.1242C168.589 45.8404 168.589 48.4831 168.589 51.2726C164.85 53.6217 160.89 54.3558 156.637 53.0345C151.871 51.5663 149.231 47.3086 149.744 42.0965C150.111 37.5452 153.704 33.8747 158.617 33.2874C162.503 32.847 166.096 33.4343 168.883 36.3706C168.003 37.3249 167.196 38.2058 166.17 39.2336C165.51 38.7931 164.85 38.3527 164.19 37.9856C161.697 36.5908 158.617 36.8845 156.49 38.6463C154.511 40.3347 153.777 43.1977 154.731 45.767C156.124 49.5842 160.963 50.6854 164.483 48.6299Z" fill="white"/>
<path d="M98.9292 33.6548C100.542 33.6548 102.009 33.6548 103.549 33.6548C103.549 37.9859 103.769 42.1702 103.475 46.428C103.182 50.6123 100.469 53.1082 96.2161 53.6954C91.5966 54.2827 87.197 52.8879 85.7305 48.043C85.6571 47.6759 85.5105 47.3823 85.5105 47.0152C85.4372 46.1343 85.3638 45.2534 85.3638 44.2991C85.3638 40.7755 85.3638 37.3252 85.3638 33.6548C86.9037 33.6548 88.2969 33.6548 89.8367 33.6548C89.9101 34.3155 89.9834 35.0496 89.9834 35.7102C89.9834 38.4264 89.9834 41.1425 89.9834 43.7852C89.9834 44.8864 90.1301 45.9875 90.4234 46.9418C91.01 48.8505 92.4032 49.7314 94.603 49.658C96.7294 49.5845 98.1959 48.5568 98.5626 46.6482C98.7826 45.547 98.7826 44.2991 98.7826 43.1245C98.9292 40.0414 98.9292 36.8848 98.9292 33.6548Z" fill="white"/>
<path d="M135.446 33.5806C137.059 33.5806 138.526 33.5806 140.139 33.5806C143.072 40.0406 146.005 46.5006 149.011 53.1808C147.325 53.1808 145.785 53.1808 144.025 53.1808C142.045 48.4826 139.992 43.6376 137.719 38.2787C135.519 43.5642 133.393 48.3358 131.34 53.2542C129.8 53.2542 128.406 53.2542 126.5 53.2542C129.58 46.574 132.513 40.0406 135.446 33.5806Z" fill="white"/>
<path d="M41.8814 33.5806C47.6008 33.5806 53.2469 33.5806 59.0397 33.5806C59.0397 34.7551 59.0397 35.9297 59.0397 37.3978C57.0599 37.3978 55.0801 37.3978 52.8803 37.3978C52.8803 42.7567 52.8803 47.8219 52.8803 53.1808C51.2671 53.1808 49.8739 53.1808 48.1874 53.1808C48.1874 48.1155 48.1874 42.9035 48.1874 37.5447C45.9876 37.5447 44.0078 37.5447 41.808 37.5447C41.8814 36.1499 41.8814 35.0487 41.8814 33.5806Z" fill="white"/>
<path d="M172.989 53.1816C172.989 49.1441 172.989 45.4003 172.989 41.583C177.608 41.583 182.155 41.583 186.848 41.583C186.848 42.6841 186.848 43.7119 186.848 45.0332C183.915 45.0332 180.981 45.0332 177.828 45.0332C177.828 46.5748 177.828 47.8962 177.828 49.5112C181.275 49.5112 184.721 49.5112 188.387 49.5112C188.461 50.3921 188.534 50.9794 188.607 51.5666C188.607 52.0805 188.534 52.5944 188.534 53.255C183.328 53.1816 178.268 53.1816 172.989 53.1816Z" fill="white"/>
<path d="M15.3372 41.6562C15.3372 42.7574 15.3372 43.7851 15.3372 45.1065C12.4041 45.1065 9.54441 45.1065 6.4647 45.1065C6.4647 46.5747 6.4647 47.896 6.4647 49.511C9.83771 49.511 13.3574 49.511 16.9504 49.511C16.9504 50.9058 16.9504 51.9335 16.9504 53.1815C11.9642 53.1815 6.90466 53.1815 1.69849 53.1815C1.69849 49.3642 1.69849 45.6203 1.69849 41.6562C6.24472 41.6562 10.7176 41.6562 15.3372 41.6562Z" fill="white"/>
<path d="M173.136 33.6548C178.122 33.6548 182.961 33.6548 187.947 33.6548C187.947 34.9771 187.947 36.2112 187.947 37.6217C183.108 37.6217 178.195 37.6217 173.136 37.6217C173.136 36.3875 173.136 35.0652 173.136 33.6548Z" fill="#FC414C"/>
<path d="M193.08 50.0977C194.033 50.0243 195.133 50.9786 194.987 51.933C194.913 52.8873 194.327 53.6214 193.3 53.6948C192.274 53.7682 191.614 53.1809 191.467 52.1532C191.247 51.1255 192.054 50.0977 193.08 50.0977Z" fill="#FC414C"/>
<path d="M1.77185 37.6949C1.77185 36.2845 1.77185 35.0503 1.77185 33.728C6.75804 33.728 11.6709 33.728 16.7304 33.728C16.7304 35.1385 16.7304 36.3726 16.7304 37.6949C11.6709 37.6949 6.75804 37.6949 1.77185 37.6949Z" fill="#FC414C"/>
<rect y="4.76562" width="40.6456" height="21.0236" rx="3" fill="#EA305C"/>
<path d="M6.47528 20.183H9.19433V17.3799H10.5398C12.9786 17.3799 14.7586 16.1605 14.7586 13.8479C14.7586 11.6474 13.1608 10.372 10.68 10.372H6.47528V20.183ZM9.19433 15.2495V12.6566H10.4698C11.4509 12.6566 12.0395 13.1051 12.0395 13.946C12.0395 14.7449 11.4509 15.2495 10.4838 15.2495H9.19433Z" fill="white"/>
<path d="M15.9058 20.183H18.6248V17.3799H19.9704C22.4091 17.3799 24.1891 16.1605 24.1891 13.8479C24.1891 11.6474 22.5913 10.372 20.1105 10.372H15.9058V20.183ZM18.6248 15.2495V12.6566H19.9003C20.8814 12.6566 21.47 13.1051 21.47 13.946C21.47 14.7449 20.8814 15.2495 19.9143 15.2495H18.6248Z" fill="white"/>
<path d="M30.0596 20.3792C32.232 20.3792 33.4795 19.4402 34.4045 18.1648L32.3582 16.7071C31.7695 17.4219 31.1669 17.8985 30.1437 17.8985C28.7702 17.8985 27.8031 16.7492 27.8031 15.2775C27.8031 13.8199 28.7702 12.6566 30.1437 12.6566C31.0828 12.6566 31.7415 13.0911 32.3021 13.7918L34.2924 12.2501C33.4234 11.0448 32.176 10.1758 30.1717 10.1758C27.2004 10.1758 24.9999 12.4183 24.9999 15.2775C24.9999 18.2348 27.2565 20.3792 30.0596 20.3792Z" fill="white"/>
</svg>
