<svg width="20" height="19" viewBox="0 0 20 19" fill="none" xmlns="http://www.w3.org/2000/svg">
<path d="M0 18.5323C0 14.8976 0 11.5273 0 8.09082C4.1587 8.09082 8.25139 8.09082 12.4761 8.09082C12.4761 9.0821 12.4761 10.0073 12.4761 11.1968C9.83566 11.1968 7.19522 11.1968 4.35674 11.1968C4.35674 12.5846 4.35674 13.7742 4.35674 15.2281C7.45926 15.2281 10.5618 15.2281 13.8623 15.2281C13.9283 16.0211 13.9944 16.5498 14.0604 17.0785C14.0604 17.5411 13.9944 18.0037 13.9944 18.5984C9.30758 18.5323 4.7528 18.5323 0 18.5323Z" fill="white"/>
<path d="M0.13208 0.953613C4.62084 0.953613 8.97756 0.953613 13.4663 0.953613C13.4663 2.144 13.4663 3.25503 13.4663 4.52478C9.10958 4.52478 4.68685 4.52478 0.13208 4.52478C0.13208 3.41375 0.13208 2.22336 0.13208 0.953613Z" fill="#FC414C"/>
<path d="M18.0871 15.756C18.9452 15.6899 19.9354 16.5491 19.8034 17.4082C19.7374 18.2673 19.2093 18.9281 18.2851 18.9942C17.361 19.0603 16.7669 18.5316 16.6348 17.6064C16.4368 16.6812 17.1629 15.756 18.0871 15.756Z" fill="#FC414C"/>
</svg>
