<svg width="140" height="35" viewBox="0 0 140 35" fill="none" xmlns="http://www.w3.org/2000/svg">
<path d="M14.9189 20.5068C15.913 20.5068 16.75 20.5068 17.6394 20.5068C19.8891 23.2304 22.1387 25.954 24.6499 28.887C24.6499 25.9016 24.6499 23.2828 24.6499 20.5592C25.7486 20.5592 26.7949 20.5592 27.9459 20.5592C27.9459 25.2207 27.9459 29.7774 27.9459 34.4913C27.0565 34.4913 26.1671 34.4913 25.1208 34.4913C22.9758 31.9248 20.7262 29.2536 18.2672 26.2682C18.2672 29.2536 18.2672 31.8201 18.2672 34.5436C17.0639 34.5436 16.0699 34.5436 14.9189 34.5436C14.9189 29.9345 14.9189 25.3254 14.9189 20.5068Z" fill="white"/>
<path d="M77.2288 20.5061C80.0539 20.5585 82.9313 20.1919 85.7564 20.8204C87.7968 21.2918 89.2094 22.6012 89.5756 24.7486C89.8895 26.7913 89.3663 28.5721 87.4829 29.7767C87.2736 29.9338 87.1167 30.091 86.8551 30.3005C87.8491 31.7146 88.7908 33.0764 89.8372 34.5953C88.5293 34.5953 87.4829 34.5953 86.2273 34.5953C85.3902 33.443 84.5008 32.186 83.5591 30.8766C82.6697 30.8766 81.6757 30.8766 80.5771 30.8766C80.5771 32.1336 80.5771 33.3383 80.5771 34.5953C79.3738 34.5953 78.3797 34.5953 77.2811 34.5953C77.2288 29.9338 77.2288 25.3247 77.2288 20.5061ZM80.5771 28.0483C81.2572 28.0483 81.9373 28.0483 82.5651 28.0483C83.036 28.0483 83.4545 28.1007 83.9253 28.0483C85.3379 27.8912 86.175 27.0008 86.175 25.639C86.175 24.382 85.4425 23.4916 84.03 23.3868C82.879 23.2821 81.7803 23.3868 80.6294 23.3868C80.5771 24.9581 80.5771 26.4246 80.5771 28.0483Z" fill="white"/>
<path d="M50.704 20.2446C54.5231 20.2446 57.5052 22.3397 58.3423 25.587C59.5456 30.0913 56.8251 34.1243 52.0119 34.8052C49.0821 35.2242 46.414 34.4386 44.4782 32.0816C42.6994 29.8818 42.4902 27.3678 43.4319 24.8014C44.4782 21.973 47.3034 20.297 50.704 20.2446ZM55.1509 27.6297C55.1509 25.0109 53.2152 23.0729 50.6517 23.0729C48.1927 23.1253 46.257 25.0632 46.257 27.5249C46.2047 29.9866 48.1404 31.9769 50.5993 32.0816C53.1629 32.1864 55.1509 30.1961 55.1509 27.6297Z" fill="white"/>
<path d="M117.356 31.2962C117.356 30.0392 117.356 28.7298 117.356 27.368C118.35 27.368 119.239 27.368 120.286 27.368C120.286 29.3059 120.286 31.1915 120.286 33.1817C117.618 34.8578 114.792 35.3815 111.758 34.4388C108.357 33.3913 106.474 30.3534 106.84 26.6347C107.102 23.3874 109.665 20.7686 113.171 20.3496C115.943 20.0353 118.507 20.4543 120.495 22.5494C119.867 23.2303 119.292 23.8588 118.559 24.5921C118.088 24.2778 117.618 23.9635 117.147 23.7017C115.368 22.7065 113.171 22.916 111.653 24.1731C110.241 25.3777 109.718 27.4204 110.398 29.2535C111.392 31.9771 114.845 32.7627 117.356 31.2962Z" fill="white"/>
<path d="M70.5844 20.6113C71.7354 20.6113 72.7818 20.6113 73.8804 20.6113C73.8804 23.7015 74.0374 26.687 73.8281 29.7248C73.6188 32.7102 71.6831 34.491 68.6487 34.91C65.3527 35.329 62.2137 34.3339 61.1673 30.877C61.115 30.6152 61.0104 30.4057 61.0104 30.1438C60.9581 29.5153 60.9058 28.8868 60.9058 28.2059C60.9058 25.6918 60.9058 23.2301 60.9058 20.6113C62.0044 20.6113 62.9985 20.6113 64.0971 20.6113C64.1494 21.0827 64.2017 21.6065 64.2017 22.0779C64.2017 24.0158 64.2017 25.9537 64.2017 27.8392C64.2017 28.6249 64.3064 29.4105 64.5157 30.0914C64.9342 31.4532 65.9282 32.0817 67.4977 32.0293C69.0149 31.9769 70.0613 31.2437 70.3229 29.8819C70.4798 29.0963 70.4798 28.2059 70.4798 27.3678C70.5844 25.1681 70.5844 22.9159 70.5844 20.6113Z" fill="white"/>
<path d="M96.6386 20.5586C97.7895 20.5586 98.8359 20.5586 99.9868 20.5586C102.08 25.1677 104.172 29.7768 106.317 34.543C105.114 34.543 104.015 34.543 102.76 34.543C101.347 31.1909 99.8822 27.7341 98.2604 23.9107C96.6909 27.6817 95.1737 31.0862 93.7088 34.5954C92.6101 34.5954 91.6161 34.5954 90.2559 34.5954C92.4532 29.8292 94.5459 25.1677 96.6386 20.5586Z" fill="white"/>
<path d="M29.8817 20.5586C33.9624 20.5586 37.9908 20.5586 42.1239 20.5586C42.1239 21.3966 42.1239 22.2346 42.1239 23.2822C40.7113 23.2822 39.2987 23.2822 37.7292 23.2822C37.7292 27.1056 37.7292 30.7196 37.7292 34.543C36.5783 34.543 35.5842 34.543 34.3809 34.543C34.3809 30.9291 34.3809 27.2104 34.3809 23.3869C32.8114 23.3869 31.3989 23.3869 29.8293 23.3869C29.8817 22.3918 29.8817 21.6061 29.8817 20.5586Z" fill="white"/>
<path d="M123.425 34.5435C123.425 31.6628 123.425 28.9916 123.425 26.2681C126.721 26.2681 129.964 26.2681 133.313 26.2681C133.313 27.0537 133.313 27.787 133.313 28.7297C131.22 28.7297 129.127 28.7297 126.878 28.7297C126.878 29.8296 126.878 30.7724 126.878 31.9247C129.337 31.9247 131.796 31.9247 134.411 31.9247C134.464 32.5532 134.516 32.9722 134.568 33.3912C134.568 33.7579 134.516 34.1245 134.516 34.5959C130.802 34.5435 127.192 34.5435 123.425 34.5435Z" fill="white"/>
<path d="M10.9429 26.3203C10.9429 27.106 10.9429 27.8392 10.9429 28.782C8.85022 28.782 6.80985 28.782 4.61253 28.782C4.61253 29.8295 4.61253 30.7723 4.61253 31.9246C7.01912 31.9246 9.53034 31.9246 12.0939 31.9246C12.0939 32.9197 12.0939 33.653 12.0939 34.5434C8.53631 34.5434 4.92643 34.5434 1.21191 34.5434C1.21191 31.8198 1.21191 29.1486 1.21191 26.3203C4.45558 26.3203 7.64692 26.3203 10.9429 26.3203Z" fill="white"/>
<path d="M123.529 20.6113C127.087 20.6113 130.54 20.6113 134.097 20.6113C134.097 21.5548 134.097 22.4353 134.097 23.4417C130.644 23.4417 127.139 23.4417 123.529 23.4417C123.529 22.5611 123.529 21.6177 123.529 20.6113Z" fill="#FC414C"/>
<path d="M137.76 32.3432C138.44 32.2908 139.225 32.9717 139.12 33.6526C139.068 34.3335 138.649 34.8572 137.917 34.9096C137.184 34.962 136.713 34.543 136.609 33.8097C136.452 33.0764 137.027 32.3432 137.76 32.3432Z" fill="#FC414C"/>
<path d="M1.26416 23.4939C1.26416 22.4876 1.26416 21.607 1.26416 20.6636C4.82172 20.6636 8.32697 20.6636 11.9369 20.6636C11.9369 21.6699 11.9369 22.5505 11.9369 23.4939C8.32697 23.4939 4.82172 23.4939 1.26416 23.4939Z" fill="#FC414C"/>
<rect width="29" height="15" rx="3" fill="#EA305C"/>
<path d="M4.62 11H6.56V9H7.52C9.26 9 10.53 8.13 10.53 6.48C10.53 4.91 9.39 4 7.62 4H4.62V11ZM6.56 7.48V5.63H7.47C8.17 5.63 8.59 5.95 8.59 6.55C8.59 7.12 8.17 7.48 7.48 7.48H6.56ZM11.3485 11H13.2885V9H14.2485C15.9885 9 17.2585 8.13 17.2585 6.48C17.2585 4.91 16.1185 4 14.3485 4H11.3485V11ZM13.2885 7.48V5.63H14.1985C14.8985 5.63 15.3185 5.95 15.3185 6.55C15.3185 7.12 14.8985 7.48 14.2085 7.48H13.2885ZM21.447 11.14C22.997 11.14 23.887 10.47 24.547 9.56L23.087 8.52C22.667 9.03 22.237 9.37 21.507 9.37C20.527 9.37 19.837 8.55 19.837 7.5C19.837 6.46 20.527 5.63 21.507 5.63C22.177 5.63 22.647 5.94 23.047 6.44L24.467 5.34C23.847 4.48 22.957 3.86 21.527 3.86C19.407 3.86 17.837 5.46 17.837 7.5C17.837 9.61 19.447 11.14 21.447 11.14Z" fill="white"/>
</svg>
