<svg width="140" height="35" viewBox="0 0 140 35" fill="none" xmlns="http://www.w3.org/2000/svg">
  <defs>
    <clipPath id="clip-path">
      <rect x="-2" y="4" width="17" height="11" fill="none"/>
    </clipPath>
  </defs>
  <rect id="Rectangle_1" data-name="Rectangle 1" width="140" height="35" fill="none"/>
  <g id="logo">
    <path id="Path_74" data-name="Path 74" d="M14.919,20.507h2.721c2.25,2.724,4.5,5.447,7.01,8.38V20.559h3.3V34.491H25.121c-2.145-2.566-4.395-5.238-6.854-8.223v8.275H14.919Z" fill="#fff"/>
    <path id="Path_75" data-name="Path 75" d="M77.229,20.506c2.825.052,5.7-.314,8.528.314a4.668,4.668,0,0,1,3.819,3.928,4.647,4.647,0,0,1-2.093,5.028c-.209.157-.366.314-.628.524.994,1.414,1.936,2.776,2.982,4.295h-3.61c-.837-1.152-1.727-2.409-2.668-3.719H80.577V34.6h-3.3C77.229,29.934,77.229,25.325,77.229,20.506Zm3.348,7.542h1.988a11.779,11.779,0,0,0,1.36,0,2.3,2.3,0,0,0,2.25-2.409,2.114,2.114,0,0,0-2.145-2.252c-1.151-.1-2.25,0-3.4,0C80.577,24.958,80.577,26.425,80.577,28.048Z" fill="#fff"/>
    <path id="Path_76" data-name="Path 76" d="M50.7,20.245c3.819,0,6.8,2.1,7.638,5.342,1.2,4.5-1.517,8.537-6.33,9.218a7.808,7.808,0,0,1-7.534-2.724,7.084,7.084,0,0,1-1.046-7.28C44.478,21.973,47.3,20.3,50.7,20.245Zm4.447,7.385a4.448,4.448,0,1,0-8.894-.1A4.48,4.48,0,0,0,50.6,32.082,4.344,4.344,0,0,0,55.151,27.63Z" fill="#fff"/>
    <path id="Path_77" data-name="Path 77" d="M117.356,31.3V27.368h2.93v5.814a9.863,9.863,0,0,1-8.528,1.257,7.014,7.014,0,0,1-4.918-7.8,6.982,6.982,0,0,1,6.331-6.285c2.772-.314,5.336.1,7.324,2.2-.628.681-1.2,1.309-1.936,2.043-.471-.314-.941-.629-1.412-.89a4.9,4.9,0,0,0-5.494.471,4.592,4.592,0,0,0-1.255,5.08C111.392,31.977,114.845,32.763,117.356,31.3Z" fill="#fff"/>
    <path id="Path_78" data-name="Path 78" d="M70.584,20.611h3.3c0,3.09.157,6.076-.052,9.114-.209,2.985-2.145,4.766-5.179,5.185-3.3.419-6.435-.576-7.481-4.033a3.672,3.672,0,0,1-.157-.733c-.052-.628-.1-1.257-.1-1.938V20.611H64.1a13.823,13.823,0,0,1,.1,1.467v5.761a7.809,7.809,0,0,0,.314,2.252,3.087,3.087,0,0,0,5.807-.209,13.259,13.259,0,0,0,.157-2.514C70.584,25.168,70.584,22.916,70.584,20.611Z" fill="#fff"/>
    <path id="Path_79" data-name="Path 79" d="M96.639,20.559h3.348c2.093,4.609,4.185,9.218,6.33,13.984H102.76c-1.413-3.352-2.878-6.809-4.5-10.632-1.569,3.771-3.087,7.176-4.552,10.685H90.256C92.453,29.829,94.546,25.168,96.639,20.559Z" fill="#fff"/>
    <path id="Path_80" data-name="Path 80" d="M29.882,20.559H42.124v2.724H37.729V34.543H34.381V23.387H29.829C29.882,22.392,29.882,21.606,29.882,20.559Z" fill="#fff"/>
    <path id="Path_81" data-name="Path 81" d="M123.425,34.543V26.268h9.888V28.73h-6.435v3.195h7.533c.053.628.105,1.047.157,1.467,0,.367-.052.733-.052,1.2C130.8,34.543,127.192,34.543,123.425,34.543Z" fill="#fff"/>
    <path id="Path_82" data-name="Path 82" d="M10.943,26.32v2.462H4.613v3.143h7.481v2.619H1.212V26.32Z" fill="#fff"/>
    <path id="Path_83" data-name="Path 83" d="M123.529,20.611H134.1v2.83H123.529Z" fill="#fc414c"/>
    <path id="Path_84" data-name="Path 84" d="M137.76,32.343a1.308,1.308,0,0,1,1.36,1.309,1.263,1.263,0,0,1-1.2,1.257,1.156,1.156,0,0,1-1.308-1.1A1.221,1.221,0,0,1,137.76,32.343Z" fill="#fc414c"/>
    <path id="Path_85" data-name="Path 85" d="M1.264,23.494v-2.83H11.937v2.83Z" fill="#fc414c"/>
    <rect id="Rectangle_27" data-name="Rectangle 27" width="29" height="15" rx="3" fill="#ea305c"/>
    <g id="Scroll_Group_1" data-name="Scroll Group 1" transform="translate(8 -2)" clip-path="url(#clip-path)" style="isolation: isolate">
        <text id="_2.0" data-name="2.0" transform="translate(-2)" fill="#fff" font-size="13" font-family="SegoeUI, Segoe UI"><tspan x="0" y="14">2.0</tspan></text>
    </g>
  </g>
</svg>
