<svg width="67" height="58" viewBox="0 0 67 58" fill="none" xmlns="http://www.w3.org/2000/svg">
<path d="M28.3325 40.9388C28.3325 41.9155 28.7205 42.8521 29.4111 43.5428C30.1017 44.2334 31.0384 44.6214 32.0151 44.6214H54.1108L61.4761 51.9866V22.5256C61.4761 21.5489 61.0881 20.6123 60.3975 19.9216C59.7068 19.231 58.7701 18.843 57.7935 18.843H32.0151C31.0384 18.843 30.1017 19.231 29.4111 19.9216C28.7205 20.6123 28.3325 21.5489 28.3325 22.5256V40.9388Z" fill="#ECECEC"/>
<path d="M37.0637 26.1489H48.468" stroke="white" stroke-width="1.5" stroke-linecap="round"/>
<path d="M37.0637 31.8511H54.1701" stroke="white" stroke-width="1.5" stroke-linecap="round"/>
<path d="M37.0637 37.5532H54.1701" stroke="white" stroke-width="1.5" stroke-linecap="round"/>
<path d="M42.4097 30.7819C42.4097 31.8531 41.9841 32.8804 41.2267 33.6379C40.4692 34.3954 39.4419 34.8209 38.3707 34.8209H14.1366L6.05859 42.8989V10.5869C6.05859 9.51565 6.48413 8.48831 7.24159 7.73085C7.99905 6.97339 9.02639 6.54785 10.0976 6.54785H38.3707C39.4419 6.54785 40.4692 6.97339 41.2267 7.73085C41.9841 8.48831 42.4097 9.51565 42.4097 10.5869V30.7819Z" fill="#246FE1"/>
<path d="M15.6809 14.7446H27.0852" stroke="white" stroke-width="1.5" stroke-linecap="round"/>
<path d="M15.6809 20.4468H32.7873" stroke="white" stroke-width="1.5" stroke-linecap="round"/>
<path d="M15.6809 26.1489H32.7873" stroke="white" stroke-width="1.5" stroke-linecap="round"/>
</svg>
